<mxfile host="app.diagrams.net" modified="2023-07-15T11:55:47.141Z" agent="Mozilla/5.0 (Windows NT 10.0; Win64; x64) AppleWebKit/537.36 (KHTML, like Gecko) Chrome/110.0.0.0 Safari/537.36 Edg/110.0.1587.63" version="21.5.2" etag="tSRd_Fsro2xMBEePFtRB" type="github">
  <diagram name="第 1 页" id="kmQrX9YLvzu7l8EAexXQ">
    <mxGraphModel>
      <root>
        <mxCell id="0" />
        <mxCell id="1" parent="0" />
      </root>
    </mxGraphModel>
  </diagram>
</mxfile>
